<mxfile host="app.diagrams.net" modified="2023-05-15T20:16:45.676Z" agent="Mozilla/5.0 (Windows NT 10.0; Win64; x64) AppleWebKit/537.36 (KHTML, like Gecko) Chrome/106.0.0.0 Safari/537.36" etag="k-AgCVWd3uj_XB4Xmbgb" version="21.2.9" type="github">
  <diagram id="C5RBs43oDa-KdzZeNtuy" name="Page-1">
    <mxGraphModel dx="1883" dy="1121" grid="1" gridSize="10" guides="1" tooltips="1" connect="1" arrows="1" fold="1" page="1" pageScale="1" pageWidth="1654" pageHeight="1169" math="0" shadow="0">
      <root>
        <mxCell id="WIyWlLk6GJQsqaUBKTNV-0" />
        <mxCell id="WIyWlLk6GJQsqaUBKTNV-1" parent="WIyWlLk6GJQsqaUBKTNV-0" />
        <mxCell id="ubw8424j0Z61Ouidnzyt-37" value="checker" style="shape=folder;fontStyle=1;spacingTop=10;tabWidth=40;tabHeight=14;tabPosition=left;html=1;whiteSpace=wrap;" vertex="1" parent="WIyWlLk6GJQsqaUBKTNV-1">
          <mxGeometry x="10" y="10" width="70" height="50" as="geometry" />
        </mxCell>
        <mxCell id="ubw8424j0Z61Ouidnzyt-39" value="&lt;div&gt;__init__.py&lt;/div&gt;&lt;div&gt;basic_check.py&lt;/div&gt;&lt;div&gt;db_base_check.py&lt;/div&gt;&lt;div&gt;email_check.py&lt;/div&gt;&lt;div&gt;string_check.py&lt;/div&gt;&lt;div&gt;xls_check.py&lt;/div&gt;" style="html=1;whiteSpace=wrap;align=left;" vertex="1" parent="WIyWlLk6GJQsqaUBKTNV-1">
          <mxGeometry x="30" y="60" width="110" height="120" as="geometry" />
        </mxCell>
        <mxCell id="ubw8424j0Z61Ouidnzyt-40" value="adm_api" style="shape=folder;fontStyle=1;spacingTop=10;tabWidth=40;tabHeight=14;tabPosition=left;html=1;whiteSpace=wrap;" vertex="1" parent="WIyWlLk6GJQsqaUBKTNV-1">
          <mxGeometry x="30" y="200" width="70" height="50" as="geometry" />
        </mxCell>
        <mxCell id="ubw8424j0Z61Ouidnzyt-41" value="ui" style="shape=folder;fontStyle=1;spacingTop=10;tabWidth=40;tabHeight=14;tabPosition=left;html=1;whiteSpace=wrap;" vertex="1" parent="WIyWlLk6GJQsqaUBKTNV-1">
          <mxGeometry x="30" y="350" width="70" height="50" as="geometry" />
        </mxCell>
        <mxCell id="ubw8424j0Z61Ouidnzyt-42" value="&lt;div&gt;__init__.py&lt;/div&gt;&lt;div&gt;html_api_check.py&lt;/div&gt;&lt;div&gt;nativemain.py&lt;/div&gt;" style="html=1;whiteSpace=wrap;align=left;" vertex="1" parent="WIyWlLk6GJQsqaUBKTNV-1">
          <mxGeometry x="50" y="250" width="110" height="80" as="geometry" />
        </mxCell>
        <mxCell id="ubw8424j0Z61Ouidnzyt-43" value="&lt;div&gt;__init__.py&lt;/div&gt;&lt;div&gt;list_page_check.py&lt;/div&gt;&lt;div&gt;login_check.py&lt;/div&gt;&lt;div&gt;main_page_check.py&lt;/div&gt;" style="html=1;whiteSpace=wrap;align=left;" vertex="1" parent="WIyWlLk6GJQsqaUBKTNV-1">
          <mxGeometry x="50" y="400" width="120" height="90" as="geometry" />
        </mxCell>
        <mxCell id="ubw8424j0Z61Ouidnzyt-47" value="fixtures" style="shape=folder;fontStyle=1;spacingTop=10;tabWidth=40;tabHeight=14;tabPosition=left;html=1;whiteSpace=wrap;" vertex="1" parent="WIyWlLk6GJQsqaUBKTNV-1">
          <mxGeometry x="200" y="10" width="70" height="50" as="geometry" />
        </mxCell>
        <mxCell id="ubw8424j0Z61Ouidnzyt-48" value="api" style="shape=folder;fontStyle=1;spacingTop=10;tabWidth=40;tabHeight=14;tabPosition=left;html=1;whiteSpace=wrap;" vertex="1" parent="WIyWlLk6GJQsqaUBKTNV-1">
          <mxGeometry x="220" y="125" width="70" height="50" as="geometry" />
        </mxCell>
        <mxCell id="ubw8424j0Z61Ouidnzyt-49" value="db" style="shape=folder;fontStyle=1;spacingTop=10;tabWidth=35;tabHeight=10;tabPosition=left;html=1;whiteSpace=wrap;" vertex="1" parent="WIyWlLk6GJQsqaUBKTNV-1">
          <mxGeometry x="240" y="415" width="75" height="50" as="geometry" />
        </mxCell>
        <mxCell id="ubw8424j0Z61Ouidnzyt-50" value="ui" style="shape=folder;fontStyle=1;spacingTop=10;tabWidth=40;tabHeight=14;tabPosition=left;html=1;whiteSpace=wrap;" vertex="1" parent="WIyWlLk6GJQsqaUBKTNV-1">
          <mxGeometry x="240" y="530" width="70" height="50" as="geometry" />
        </mxCell>
        <mxCell id="ubw8424j0Z61Ouidnzyt-51" value="&lt;div&gt;__init__.py&lt;/div&gt;&lt;div&gt;setup.py&lt;/div&gt;" style="html=1;whiteSpace=wrap;align=left;" vertex="1" parent="WIyWlLk6GJQsqaUBKTNV-1">
          <mxGeometry x="220" y="60" width="110" height="40" as="geometry" />
        </mxCell>
        <mxCell id="ubw8424j0Z61Ouidnzyt-52" value="adm" style="shape=folder;fontStyle=1;spacingTop=10;tabWidth=40;tabHeight=14;tabPosition=left;html=1;whiteSpace=wrap;" vertex="1" parent="WIyWlLk6GJQsqaUBKTNV-1">
          <mxGeometry x="245" y="190" width="70" height="50" as="geometry" />
        </mxCell>
        <mxCell id="ubw8424j0Z61Ouidnzyt-53" value="&lt;div&gt;adm_auth_fixture.py&lt;/div&gt;&lt;div&gt;auth.py&lt;/div&gt;&lt;div&gt;base.py&lt;/div&gt;&lt;div&gt;email_fixture.py&lt;/div&gt;&lt;div&gt;tsoo_fixture.py&lt;/div&gt;" style="html=1;whiteSpace=wrap;align=left;" vertex="1" parent="WIyWlLk6GJQsqaUBKTNV-1">
          <mxGeometry x="240" y="305" width="130" height="90" as="geometry" />
        </mxCell>
        <mxCell id="ubw8424j0Z61Ouidnzyt-54" value="&lt;div&gt;adm_auth_fixture.py&lt;/div&gt;&lt;div&gt;doctype_fixture.py&lt;/div&gt;&lt;div&gt;nativemain_fixture.py&lt;/div&gt;" style="html=1;whiteSpace=wrap;align=left;" vertex="1" parent="WIyWlLk6GJQsqaUBKTNV-1">
          <mxGeometry x="270" y="240" width="130" height="60" as="geometry" />
        </mxCell>
        <mxCell id="ubw8424j0Z61Ouidnzyt-55" value="create.py" style="html=1;whiteSpace=wrap;align=left;" vertex="1" parent="WIyWlLk6GJQsqaUBKTNV-1">
          <mxGeometry x="260" y="465" width="90" height="35" as="geometry" />
        </mxCell>
        <mxCell id="ubw8424j0Z61Ouidnzyt-56" value="&lt;div&gt;__init__.py&lt;/div&gt;&lt;div&gt;auth.py&lt;/div&gt;&lt;div&gt;browser.py&lt;/div&gt;&lt;div&gt;common.py&lt;/div&gt;" style="html=1;whiteSpace=wrap;align=left;" vertex="1" parent="WIyWlLk6GJQsqaUBKTNV-1">
          <mxGeometry x="260" y="580" width="110" height="70" as="geometry" />
        </mxCell>
        <mxCell id="ubw8424j0Z61Ouidnzyt-57" value="helpers" style="shape=folder;fontStyle=1;spacingTop=10;tabWidth=40;tabHeight=14;tabPosition=left;html=1;whiteSpace=wrap;" vertex="1" parent="WIyWlLk6GJQsqaUBKTNV-1">
          <mxGeometry x="420" y="10" width="70" height="50" as="geometry" />
        </mxCell>
        <mxCell id="ubw8424j0Z61Ouidnzyt-58" value="api" style="shape=folder;fontStyle=1;spacingTop=10;tabWidth=40;tabHeight=14;tabPosition=left;html=1;whiteSpace=wrap;" vertex="1" parent="WIyWlLk6GJQsqaUBKTNV-1">
          <mxGeometry x="445" y="325" width="70" height="50" as="geometry" />
        </mxCell>
        <mxCell id="ubw8424j0Z61Ouidnzyt-59" value="objects" style="shape=folder;fontStyle=1;spacingTop=10;tabWidth=40;tabHeight=14;tabPosition=left;html=1;whiteSpace=wrap;" vertex="1" parent="WIyWlLk6GJQsqaUBKTNV-1">
          <mxGeometry x="465" y="480" width="70" height="50" as="geometry" />
        </mxCell>
        <mxCell id="ubw8424j0Z61Ouidnzyt-60" value="base_api.py" style="html=1;whiteSpace=wrap;align=left;" vertex="1" parent="WIyWlLk6GJQsqaUBKTNV-1">
          <mxGeometry x="485" y="530" width="80" height="40" as="geometry" />
        </mxCell>
        <mxCell id="ubw8424j0Z61Ouidnzyt-61" value="&lt;div&gt;adm_wrapper_api.py&lt;/div&gt;&lt;div&gt;auth.py&lt;/div&gt;&lt;div&gt;logger.py&lt;/div&gt;&lt;div&gt;wrapper_api.py&lt;/div&gt;&lt;div&gt;wrapper_email.py&lt;/div&gt;" style="html=1;whiteSpace=wrap;align=left;" vertex="1" parent="WIyWlLk6GJQsqaUBKTNV-1">
          <mxGeometry x="465" y="375" width="130" height="90" as="geometry" />
        </mxCell>
        <mxCell id="ubw8424j0Z61Ouidnzyt-62" value="constants" style="shape=folder;fontStyle=1;spacingTop=10;tabWidth=40;tabHeight=14;tabPosition=left;html=1;whiteSpace=wrap;" vertex="1" parent="WIyWlLk6GJQsqaUBKTNV-1">
          <mxGeometry x="445" y="580" width="70" height="50" as="geometry" />
        </mxCell>
        <mxCell id="ubw8424j0Z61Ouidnzyt-63" value="acts_of_reconciliation.py" style="html=1;whiteSpace=wrap;align=left;" vertex="1" parent="WIyWlLk6GJQsqaUBKTNV-1">
          <mxGeometry x="475" y="630" width="140" height="35" as="geometry" />
        </mxCell>
        <mxCell id="ubw8424j0Z61Ouidnzyt-65" value="date" style="shape=folder;fontStyle=1;spacingTop=10;tabWidth=40;tabHeight=14;tabPosition=left;html=1;whiteSpace=wrap;" vertex="1" parent="WIyWlLk6GJQsqaUBKTNV-1">
          <mxGeometry x="440" y="680" width="70" height="50" as="geometry" />
        </mxCell>
        <mxCell id="ubw8424j0Z61Ouidnzyt-66" value="date.py" style="html=1;whiteSpace=wrap;align=left;" vertex="1" parent="WIyWlLk6GJQsqaUBKTNV-1">
          <mxGeometry x="470" y="730" width="90" height="32.5" as="geometry" />
        </mxCell>
        <mxCell id="ubw8424j0Z61Ouidnzyt-67" value="db" style="shape=folder;fontStyle=1;spacingTop=10;tabWidth=40;tabHeight=14;tabPosition=left;html=1;whiteSpace=wrap;" vertex="1" parent="WIyWlLk6GJQsqaUBKTNV-1">
          <mxGeometry x="440" y="780" width="70" height="45" as="geometry" />
        </mxCell>
        <mxCell id="ubw8424j0Z61Ouidnzyt-68" value="objects" style="shape=folder;fontStyle=1;spacingTop=10;tabWidth=40;tabHeight=14;tabPosition=left;html=1;whiteSpace=wrap;" vertex="1" parent="WIyWlLk6GJQsqaUBKTNV-1">
          <mxGeometry x="470" y="890" width="70" height="40" as="geometry" />
        </mxCell>
        <mxCell id="ubw8424j0Z61Ouidnzyt-69" value="&lt;div&gt;base_db.py&lt;/div&gt;&lt;div&gt;db_reader.py&lt;/div&gt;" style="html=1;whiteSpace=wrap;align=left;" vertex="1" parent="WIyWlLk6GJQsqaUBKTNV-1">
          <mxGeometry x="495" y="930" width="110" height="45" as="geometry" />
        </mxCell>
        <mxCell id="ubw8424j0Z61Ouidnzyt-70" value="&lt;div&gt;create_user.py&lt;/div&gt;&lt;div&gt;db_adaptor.py&lt;/div&gt;" style="html=1;whiteSpace=wrap;align=left;" vertex="1" parent="WIyWlLk6GJQsqaUBKTNV-1">
          <mxGeometry x="470" y="825" width="110" height="50" as="geometry" />
        </mxCell>
        <mxCell id="ubw8424j0Z61Ouidnzyt-71" value="ui" style="shape=folder;fontStyle=1;spacingTop=10;tabWidth=40;tabHeight=14;tabPosition=left;html=1;whiteSpace=wrap;" vertex="1" parent="WIyWlLk6GJQsqaUBKTNV-1">
          <mxGeometry x="440" y="1000" width="70" height="40" as="geometry" />
        </mxCell>
        <mxCell id="ubw8424j0Z61Ouidnzyt-72" value="&lt;div&gt;base_locator.py&lt;/div&gt;&lt;div&gt;page_load_time.py&lt;/div&gt;&lt;div&gt;scroll_to_element.py&lt;/div&gt;&lt;div&gt;set_driver_cookies.py&lt;/div&gt;" style="html=1;whiteSpace=wrap;align=left;" vertex="1" parent="WIyWlLk6GJQsqaUBKTNV-1">
          <mxGeometry x="470" y="1040" width="130" height="70" as="geometry" />
        </mxCell>
        <mxCell id="ubw8424j0Z61Ouidnzyt-73" value="&lt;div&gt;allure_formatter.py&lt;/div&gt;&lt;div&gt;browser_setup.py&lt;/div&gt;&lt;div&gt;collect_test_data.py&lt;/div&gt;&lt;div&gt;config.py&lt;/div&gt;&lt;div&gt;const.py&lt;/div&gt;&lt;div&gt;custom_readers.py&lt;/div&gt;&lt;div&gt;date.py&lt;/div&gt;&lt;div&gt;global_test_data.py&lt;/div&gt;&lt;div&gt;json_utils.py&lt;/div&gt;&lt;div&gt;logging_custom_level.py&lt;/div&gt;&lt;div&gt;readers.py&lt;/div&gt;&lt;div&gt;singleton.py&lt;/div&gt;&lt;div&gt;time.py&lt;/div&gt;&lt;div&gt;urns.py&lt;/div&gt;&lt;div&gt;writers.py&lt;/div&gt;&lt;div&gt;xls_cells_data.py&lt;/div&gt;" style="html=1;whiteSpace=wrap;align=left;" vertex="1" parent="WIyWlLk6GJQsqaUBKTNV-1">
          <mxGeometry x="445" y="60" width="140" height="255" as="geometry" />
        </mxCell>
        <mxCell id="ubw8424j0Z61Ouidnzyt-74" value="inventories" style="shape=folder;fontStyle=1;spacingTop=10;tabWidth=40;tabHeight=14;tabPosition=left;html=1;whiteSpace=wrap;" vertex="1" parent="WIyWlLk6GJQsqaUBKTNV-1">
          <mxGeometry x="640" y="5" width="70" height="50" as="geometry" />
        </mxCell>
        <mxCell id="ubw8424j0Z61Ouidnzyt-75" value="hosts" style="html=1;whiteSpace=wrap;align=left;" vertex="1" parent="WIyWlLk6GJQsqaUBKTNV-1">
          <mxGeometry x="660" y="55" width="70" height="30" as="geometry" />
        </mxCell>
        <mxCell id="ubw8424j0Z61Ouidnzyt-76" value="locators" style="shape=folder;fontStyle=1;spacingTop=10;tabWidth=40;tabHeight=14;tabPosition=left;html=1;whiteSpace=wrap;" vertex="1" parent="WIyWlLk6GJQsqaUBKTNV-1">
          <mxGeometry x="770" y="5" width="70" height="50" as="geometry" />
        </mxCell>
        <mxCell id="ubw8424j0Z61Ouidnzyt-77" value="tsoo" style="shape=folder;fontStyle=1;spacingTop=10;tabWidth=40;tabHeight=14;tabPosition=left;html=1;whiteSpace=wrap;" vertex="1" parent="WIyWlLk6GJQsqaUBKTNV-1">
          <mxGeometry x="790" y="160" width="70" height="50" as="geometry" />
        </mxCell>
        <mxCell id="ubw8424j0Z61Ouidnzyt-78" value="npa_list_locators.py" style="html=1;whiteSpace=wrap;align=left;" vertex="1" parent="WIyWlLk6GJQsqaUBKTNV-1">
          <mxGeometry x="810" y="210" width="125" height="30" as="geometry" />
        </mxCell>
        <mxCell id="ubw8424j0Z61Ouidnzyt-79" value="&lt;div&gt;__init__.py&lt;/div&gt;&lt;div&gt;base_page_locators.py&lt;/div&gt;&lt;div&gt;list_page_locators.py&lt;/div&gt;&lt;div&gt;login_page_locators.py&lt;/div&gt;&lt;div&gt;main_page_locators.py&lt;/div&gt;" style="html=1;whiteSpace=wrap;align=left;" vertex="1" parent="WIyWlLk6GJQsqaUBKTNV-1">
          <mxGeometry x="790" y="55" width="130" height="90" as="geometry" />
        </mxCell>
        <mxCell id="ubw8424j0Z61Ouidnzyt-80" value="pages" style="shape=folder;fontStyle=1;spacingTop=10;tabWidth=40;tabHeight=14;tabPosition=left;html=1;whiteSpace=wrap;" vertex="1" parent="WIyWlLk6GJQsqaUBKTNV-1">
          <mxGeometry x="960" y="5" width="70" height="50" as="geometry" />
        </mxCell>
        <mxCell id="ubw8424j0Z61Ouidnzyt-81" value="&lt;div&gt;__init__.py&lt;/div&gt;&lt;div&gt;base_page.py&lt;/div&gt;&lt;div&gt;list_page.py&lt;/div&gt;&lt;div&gt;login_page.py&lt;/div&gt;&lt;div&gt;main_page.py&lt;/div&gt;" style="html=1;whiteSpace=wrap;align=left;" vertex="1" parent="WIyWlLk6GJQsqaUBKTNV-1">
          <mxGeometry x="990" y="55" width="100" height="90" as="geometry" />
        </mxCell>
        <mxCell id="ubw8424j0Z61Ouidnzyt-86" value="test_data" style="shape=folder;fontStyle=1;spacingTop=10;tabWidth=40;tabHeight=14;tabPosition=left;html=1;whiteSpace=wrap;" vertex="1" parent="WIyWlLk6GJQsqaUBKTNV-1">
          <mxGeometry x="1120" y="5" width="70" height="50" as="geometry" />
        </mxCell>
        <mxCell id="ubw8424j0Z61Ouidnzyt-87" value="upload_files" style="shape=folder;fontStyle=1;spacingTop=10;tabWidth=40;tabHeight=14;tabPosition=left;html=1;whiteSpace=wrap;" vertex="1" parent="WIyWlLk6GJQsqaUBKTNV-1">
          <mxGeometry x="1140" y="160" width="95" height="50" as="geometry" />
        </mxCell>
        <mxCell id="ubw8424j0Z61Ouidnzyt-88" value="&lt;div&gt;hello.docx&lt;/div&gt;&lt;div&gt;test.jpeg&lt;/div&gt;&lt;div&gt;test_1.pdf&lt;/div&gt;&lt;div&gt;test_1.txt&lt;/div&gt;&lt;div&gt;test_тест.jpeg&lt;/div&gt;&lt;div&gt;тест_тест.pdf&lt;/div&gt;" style="html=1;whiteSpace=wrap;align=left;" vertex="1" parent="WIyWlLk6GJQsqaUBKTNV-1">
          <mxGeometry x="1170" y="210" width="125" height="95" as="geometry" />
        </mxCell>
        <mxCell id="ubw8424j0Z61Ouidnzyt-89" value="&lt;div&gt;accounts.yaml&lt;/div&gt;&lt;div&gt;stands.yaml&lt;/div&gt;&lt;div&gt;user_types.yaml&lt;/div&gt;&lt;div&gt;users.yaml&lt;/div&gt;" style="html=1;whiteSpace=wrap;align=left;" vertex="1" parent="WIyWlLk6GJQsqaUBKTNV-1">
          <mxGeometry x="1140" y="55" width="130" height="80" as="geometry" />
        </mxCell>
        <mxCell id="ubw8424j0Z61Ouidnzyt-91" value="utils" style="shape=folder;fontStyle=1;spacingTop=10;tabWidth=40;tabHeight=14;tabPosition=left;html=1;whiteSpace=wrap;" vertex="1" parent="WIyWlLk6GJQsqaUBKTNV-1">
          <mxGeometry x="1310" y="5" width="70" height="50" as="geometry" />
        </mxCell>
        <mxCell id="ubw8424j0Z61Ouidnzyt-92" value="&lt;div&gt;__init__.py&lt;/div&gt;&lt;div&gt;constant.py&lt;/div&gt;&lt;div&gt;file_check.py&lt;/div&gt;&lt;div&gt;string_utils.py&lt;/div&gt;&lt;div&gt;xls_utils.py&lt;/div&gt;" style="html=1;whiteSpace=wrap;align=left;" vertex="1" parent="WIyWlLk6GJQsqaUBKTNV-1">
          <mxGeometry x="1330" y="55" width="130" height="80" as="geometry" />
        </mxCell>
        <mxCell id="ubw8424j0Z61Ouidnzyt-93" value="tests" style="shape=folder;fontStyle=1;spacingTop=10;tabWidth=40;tabHeight=14;tabPosition=left;html=1;whiteSpace=wrap;" vertex="1" parent="WIyWlLk6GJQsqaUBKTNV-1">
          <mxGeometry x="710" y="310" width="95" height="50" as="geometry" />
        </mxCell>
        <mxCell id="ubw8424j0Z61Ouidnzyt-94" value="&lt;div&gt;&lt;font style=&quot;font-size: 16px;&quot;&gt;debug&lt;/font&gt;&lt;/div&gt;&lt;div&gt;&lt;span style=&quot;font-weight: normal;&quot;&gt;test_adm_api.py&lt;/span&gt;&lt;/div&gt;&lt;div&gt;&lt;span style=&quot;font-weight: normal;&quot;&gt;test_db.py&lt;/span&gt;&lt;/div&gt;" style="shape=folder;fontStyle=1;spacingTop=10;tabWidth=40;tabHeight=14;tabPosition=left;html=1;whiteSpace=wrap;align=left;" vertex="1" parent="WIyWlLk6GJQsqaUBKTNV-1">
          <mxGeometry x="730" y="430" width="100" height="85" as="geometry" />
        </mxCell>
        <mxCell id="ubw8424j0Z61Ouidnzyt-95" value="&lt;div style=&quot;&quot;&gt;&lt;span style=&quot;background-color: initial;&quot;&gt;&lt;font style=&quot;font-size: 16px;&quot;&gt;api&lt;/font&gt;&lt;/span&gt;&lt;/div&gt;" style="shape=folder;fontStyle=1;spacingTop=10;tabWidth=40;tabHeight=14;tabPosition=left;html=1;whiteSpace=wrap;align=left;" vertex="1" parent="WIyWlLk6GJQsqaUBKTNV-1">
          <mxGeometry x="730" y="365" width="95" height="50" as="geometry" />
        </mxCell>
        <mxCell id="ubw8424j0Z61Ouidnzyt-96" value="&lt;div style=&quot;&quot;&gt;&lt;font style=&quot;font-size: 16px;&quot;&gt;platform&lt;/font&gt;&lt;/div&gt;&lt;div style=&quot;font-size: 13px;&quot;&gt;&lt;font style=&quot;font-weight: normal; font-size: 13px;&quot;&gt;test_create_doctype.py&lt;/font&gt;&lt;/div&gt;&lt;div style=&quot;font-size: 13px;&quot;&gt;&lt;font style=&quot;font-weight: normal; font-size: 13px;&quot;&gt;test_login.py&lt;/font&gt;&lt;/div&gt;&lt;div style=&quot;font-size: 13px;&quot;&gt;&lt;font style=&quot;font-weight: normal; font-size: 13px;&quot;&gt;test_table_setting.py&lt;/font&gt;&lt;/div&gt;" style="shape=folder;fontStyle=1;spacingTop=10;tabWidth=40;tabHeight=14;tabPosition=left;html=1;whiteSpace=wrap;align=left;" vertex="1" parent="WIyWlLk6GJQsqaUBKTNV-1">
          <mxGeometry x="730" y="540" width="200" height="100" as="geometry" />
        </mxCell>
        <mxCell id="ubw8424j0Z61Ouidnzyt-97" value="&lt;div style=&quot;&quot;&gt;&lt;span style=&quot;font-size: 16px;&quot;&gt;tsoo / ui&lt;/span&gt;&lt;/div&gt;&lt;div style=&quot;font-size: 13px;&quot;&gt;&lt;div&gt;&lt;span style=&quot;font-weight: normal;&quot;&gt;test_accrual_list.py&lt;/span&gt;&lt;/div&gt;&lt;div&gt;&lt;span style=&quot;font-weight: normal;&quot;&gt;test_containers_visited_list.py&lt;/span&gt;&lt;/div&gt;&lt;div&gt;&lt;span style=&quot;font-weight: normal;&quot;&gt;test_landfill_list.py&lt;/span&gt;&lt;/div&gt;&lt;div&gt;&lt;span style=&quot;font-weight: normal;&quot;&gt;test_npa_list.py&lt;/span&gt;&lt;/div&gt;&lt;div&gt;&lt;span style=&quot;font-weight: normal;&quot;&gt;test_transport_register_list.py&lt;/span&gt;&lt;/div&gt;&lt;div&gt;&lt;span style=&quot;font-weight: normal;&quot;&gt;test_visit_confirmation_photo_list_statistic.py&lt;/span&gt;&lt;/div&gt;&lt;div&gt;&lt;span style=&quot;font-weight: normal;&quot;&gt;test_waste_site_list.py&lt;/span&gt;&lt;/div&gt;&lt;/div&gt;" style="shape=folder;fontStyle=1;spacingTop=10;tabWidth=40;tabHeight=14;tabPosition=left;html=1;whiteSpace=wrap;align=left;" vertex="1" parent="WIyWlLk6GJQsqaUBKTNV-1">
          <mxGeometry x="730" y="662.5" width="310" height="157.5" as="geometry" />
        </mxCell>
        <mxCell id="ubw8424j0Z61Ouidnzyt-98" value="&lt;div style=&quot;font-size: 16px;&quot;&gt;&lt;font style=&quot;font-size: 16px;&quot;&gt;ui&lt;/font&gt;&lt;/div&gt;&lt;div style=&quot;font-size: 16px;&quot;&gt;&lt;font style=&quot;font-size: 16px;&quot;&gt;&amp;nbsp; &amp;nbsp;/ platform&lt;/font&gt;&lt;/div&gt;&lt;div style=&quot;font-size: 16px;&quot;&gt;&lt;font style=&quot;font-size: 16px;&quot;&gt;&amp;nbsp; &amp;nbsp;/ tsoo&lt;/font&gt;&lt;/div&gt;" style="shape=folder;fontStyle=1;spacingTop=10;tabWidth=40;tabHeight=14;tabPosition=left;html=1;whiteSpace=wrap;align=left;" vertex="1" parent="WIyWlLk6GJQsqaUBKTNV-1">
          <mxGeometry x="730" y="845" width="100" height="85" as="geometry" />
        </mxCell>
        <mxCell id="ubw8424j0Z61Ouidnzyt-99" value="&lt;div&gt;.gitignore&lt;/div&gt;&lt;div&gt;.gitlab-ci.yml&lt;/div&gt;&lt;div&gt;allure.dockerfile&lt;/div&gt;&lt;div&gt;config.yaml&lt;/div&gt;&lt;div&gt;conftest.py&lt;/div&gt;&lt;div&gt;connection_config.ini&lt;/div&gt;&lt;div&gt;Dockerfile&lt;/div&gt;&lt;div&gt;failed_tests.txt&lt;/div&gt;&lt;div&gt;log_config.conf&lt;/div&gt;&lt;div&gt;main.yml&lt;/div&gt;&lt;div&gt;pytest.ini&lt;/div&gt;&lt;div&gt;README.md&lt;/div&gt;&lt;div&gt;requirements.dockerfile&lt;/div&gt;&lt;div&gt;requirements.txt&lt;/div&gt;&lt;div&gt;requirements.yml&lt;/div&gt;&lt;div&gt;setup.cfg&lt;/div&gt;&lt;div&gt;stack-allure.yml&lt;/div&gt;" style="html=1;whiteSpace=wrap;align=left;" vertex="1" parent="WIyWlLk6GJQsqaUBKTNV-1">
          <mxGeometry x="1290" y="570" width="150" height="310" as="geometry" />
        </mxCell>
      </root>
    </mxGraphModel>
  </diagram>
</mxfile>
